<svg xmlns="http://www.w3.org/2000/svg" viewBox="0 0 38.64 36.74"><defs><style>.cls-1{fill:#e9f4ef;}</style></defs><g id="圖層_2" data-name="圖層 2"><g id="圖層_1-2" data-name="圖層 1"><path class="cls-1" d="M1.75,24s12-21,34.65-24L32.6,9.76A48.23,48.23,0,0,0,1.75,24"/><polygon class="cls-1" points="8.01 21.67 6.22 25.04 11.52 25.04 7.2 33.15 1.89 33.15 0 36.74 16.3 36.74 18.19 33.15 12.85 33.15 17.29 24.83 22.67 24.83 24.3 21.67 8.01 21.67"/><path class="cls-1" d="M24.78,17c2.74.56,8.45,3.39,7,10.61S19.5,36.07,19.5,36.07s16.26,3.09,18.8-7.63C41,17.3,27.52,16.28,24.78,17"/></g></g></svg>